<?xml version="1.0" encoding="UTF-8" standalone="no"?>
<!-- Created with Inkscape (http://www.inkscape.org/) -->

<svg
   width="419.47775mm"
   height="351.22192mm"
   viewBox="0 0 419.47775 351.22192"
   version="1.1"
   id="svg1"
   xml:space="preserve"
   inkscape:version="1.4.2 (ebf0e940, 2025-05-08)"
   sodipodi:docname="logo.svg"
   xmlns:inkscape="http://www.inkscape.org/namespaces/inkscape"
   xmlns:sodipodi="http://sodipodi.sourceforge.net/DTD/sodipodi-0.dtd"
   xmlns:xlink="http://www.w3.org/1999/xlink"
   xmlns="http://www.w3.org/2000/svg"
   xmlns:svg="http://www.w3.org/2000/svg"><sodipodi:namedview
     id="namedview1"
     pagecolor="#ffffff"
     bordercolor="#000000"
     borderopacity="0.25"
     inkscape:showpageshadow="2"
     inkscape:pageopacity="0.0"
     inkscape:pagecheckerboard="0"
     inkscape:deskcolor="#d1d1d1"
     inkscape:document-units="mm"
     inkscape:clip-to-page="false"
     inkscape:zoom="0.39278935"
     inkscape:cx="549.91307"
     inkscape:cy="737.03627"
     inkscape:window-width="1800"
     inkscape:window-height="1064"
     inkscape:window-x="0"
     inkscape:window-y="40"
     inkscape:window-maximized="0"
     inkscape:current-layer="layer1" /><defs
     id="defs1"><linearGradient
       id="linearGradient7"
       inkscape:collect="always"><stop
         style="stop-color:#1d3462;stop-opacity:1;"
         offset="0.1849315"
         id="stop7" /><stop
         style="stop-color:#4ea7a7;stop-opacity:1;"
         offset="0.51780826"
         id="stop9" /><stop
         style="stop-color:#e69346;stop-opacity:1;"
         offset="0.80136985"
         id="stop8" /></linearGradient><linearGradient
       inkscape:collect="always"
       xlink:href="#linearGradient7"
       id="linearGradient8"
       x1="-101.17111"
       y1="145.64384"
       x2="318.30664"
       y2="145.64384"
       gradientUnits="userSpaceOnUse"
       gradientTransform="matrix(0.90235173,0,0,0.87171244,10.601455,18.684293)" /></defs><g
     inkscape:label="Layer 1"
     inkscape:groupmode="layer"
     id="layer1"
     transform="translate(101.17111,29.967126)"><path
       style="fill:url(#linearGradient8);stroke-width:0.8869"
       d="m 168.57864,298.62075 c -3.94003,-0.34736 -8.08566,-1.48296 -11.49311,-3.14828 -3.18112,-1.55469 -3.07976,-1.44153 -2.51829,-2.81154 1.42581,-3.47902 5.11724,-12.22693 5.19051,-12.30042 0.0472,-0.0473 0.59719,0.24117 1.22221,0.64111 2.75196,1.76093 5.6356,2.61017 8.76055,2.58002 3.21812,-0.031 4.92366,-0.7145 6.91478,-2.7709 1.1454,-1.18294 2.43222,-3.46176 2.68348,-4.75216 0.10485,-0.53844 -0.40821,-2.01274 -2.2474,-6.45794 -4.24534,-10.26068 -7.41727,-18.05012 -10.65743,-26.17189 -1.74595,-4.37641 -4.21951,-10.49992 -5.4968,-13.6078 -2.8096,-6.8363 -6.09403,-14.99378 -7.98617,-19.83509 -0.76845,-1.96621 -1.62122,-4.12098 -1.89504,-4.78838 l -0.49785,-1.21344 9.68541,0.0602 9.6854,0.0602 2.85645,7.3805 c 1.57105,4.05927 3.10944,8.05512 3.41864,8.87966 0.93298,2.48797 4.73334,12.24987 6.82401,17.52869 1.08015,2.72732 2.7404,6.93075 3.68945,9.34094 0.94905,2.41019 1.91543,4.79732 2.14751,5.30473 0.411,0.89863 0.4267,0.9076 0.60501,0.34596 0.1007,-0.31713 0.77509,-2.08153 1.49866,-3.92088 2.86388,-7.28019 9.71359,-24.86917 13.4935,-34.64923 l 3.98731,-10.31665 9.25145,-0.004 c 10.35352,-0.005 9.61013,-0.15483 8.75418,1.76383 -0.2735,0.61306 -1.03353,2.5158 -1.68897,4.22831 -0.65543,1.7125 -1.44781,3.68448 -1.76085,4.38217 -0.31303,0.69769 -1.63877,3.96702 -2.94608,7.26518 -1.30731,3.29816 -3.9296,9.78493 -5.82731,14.41504 -1.8977,4.63011 -5.09265,12.46612 -7.09988,17.41336 -13.2589,32.67936 -12.63208,31.22941 -15.00581,34.7114 -3.304,4.84663 -8.2163,8.31792 -13.68044,9.66733 -3.15211,0.77843 -6.70346,1.05931 -9.86708,0.78041 z M 96.118854,276.31168 c -7.799955,-1.3526 -13.76579,-4.36249 -19.219153,-9.69644 -5.001393,-4.89189 -8.573722,-12.23753 -9.796382,-20.14387 -0.721917,-4.66828 -0.390014,-12.55061 0.723831,-17.19034 1.564515,-6.51697 5.41855,-13.17767 10.186053,-17.60393 4.400634,-4.08563 11.045101,-7.18693 17.98627,-8.39506 2.508195,-0.43655 3.429866,-0.48327 7.401167,-0.37513 3.76541,0.10253 4.94189,0.22215 6.92368,0.70395 5.41864,1.31735 9.7201,3.65101 12.9516,7.02659 l 1.25299,1.30886 4.3e-4,-3.97855 4.4e-4,-3.97855 h 8.5949 c 6.71979,0 8.59364,0.0628 8.58918,0.2883 -0.003,0.15857 0.0237,16.2198 0.0596,35.69163 l 0.0654,35.40333 -8.53522,0.0606 -8.53521,0.0606 v -4.19535 -4.19537 l -1.96966,1.83749 c -3.21078,2.99529 -4.67491,3.95288 -8.37898,5.48013 -3.67894,1.51688 -6.48878,2.01856 -11.85485,2.11661 -3.215104,0.0587 -5.209599,-0.011 -6.446173,-0.22545 z M 109.12218,261.0541 c 0.91456,-0.17773 2.43919,-0.67933 3.38808,-1.11466 5.683,-2.6072 9.22585,-6.85219 10.99029,-13.16837 0.58938,-2.10987 0.6449,-2.67445 0.65742,-6.68661 0.0127,-4.08594 -0.0321,-4.55368 -0.66326,-6.91922 -1.49796,-5.61402 -4.47448,-9.81372 -8.80227,-12.41953 -5.30741,-3.19564 -12.22071,-3.67629 -17.879794,-1.2431 -6.028242,2.5919 -10.290447,8.1502 -11.537903,15.04648 -0.475774,2.63019 -0.488975,7.74034 -0.02662,10.29094 1.227776,6.77258 4.997648,11.99688 10.631706,14.73344 4.07928,1.98138 8.260311,2.44886 13.242311,1.48063 z M -48.909043,275.202 c -0.05244,-0.15995 -2.783499,-8.17872 -6.06903,-17.8195 -3.285532,-9.64078 -7.011123,-20.59044 -8.279092,-24.33258 -1.267968,-3.74215 -2.825168,-8.30883 -3.460444,-10.14819 -0.635274,-1.83935 -3.426413,-10.03863 -6.20253,-18.2206 -2.776115,-8.18198 -5.693337,-16.76446 -6.482705,-19.07219 -0.789367,-2.30772 -1.364986,-4.30565 -1.279145,-4.43983 0.105566,-0.165 3.275057,-0.24396 9.792732,-0.24396 h 9.636657 l 0.243508,0.74958 c 0.133929,0.41227 1.545844,4.69354 3.137589,9.51392 1.591744,4.82039 4.023022,12.18936 5.402841,16.37549 1.379818,4.18613 3.08385,9.32364 3.786739,11.4167 1.817341,5.41169 3.427865,10.26836 5.124353,15.45293 2.751372,8.40834 5.336999,15.66584 5.538425,15.54558 0.110442,-0.0659 0.200804,-0.27791 0.200804,-0.47106 0,-0.19315 0.639813,-2.23684 1.421806,-4.54154 0.781993,-2.30471 2.171023,-6.42182 3.086734,-9.14914 0.91571,-2.72733 2.921135,-8.69515 4.456499,-13.26183 1.535363,-4.56669 3.844908,-11.46861 5.132321,-15.33761 1.287414,-3.86899 3.221482,-9.62924 4.29793,-12.80055 1.076448,-3.1713 2.519044,-7.47852 3.205768,-9.57158 l 1.24859,-3.80557 h 8.7828659 c 7.5615685,0 8.8098541,0.0481 8.9769462,0.34596 0.1067446,0.19028 1.3188908,3.71908 2.693658,7.84178 1.374768,4.1227 4.4990147,13.41175 6.9427699,20.64233 2.443755,7.23058 5.118126,15.17039 5.943046,17.64401 3.7946,11.37857 7.6923,22.59118 7.855008,22.59669 0.09848,0.003 0.179061,-0.14322 0.179061,-0.3257 0,-0.18249 0.95762,-3.1664 2.128043,-6.63092 2.554873,-7.56257 6.074971,-18.11795 8.253965,-24.75037 0.875187,-2.6639 2.383207,-7.17869 3.351154,-10.03287 0.967946,-2.85418 2.793869,-8.30306 4.057606,-12.10863 4.257858,-12.82196 5.008729,-14.99103 5.248339,-15.16109 0.382883,-0.27175 18.688971,-0.21481 18.863937,0.0587 0.08275,0.12935 -1.367839,4.67009 -3.223525,10.09053 -9.67331,28.25555 -13.158174,38.46247 -16.357856,47.91103 -1.93309,5.70836 -5.26712,15.51635 -7.408955,21.79554 -2.141836,6.27919 -4.125998,12.11728 -4.409251,12.97353 l -0.515004,1.55683 h -9.998716 -9.998716 l -0.241456,-0.86491 c -0.1328,-0.47569 -1.145606,-3.5115 -2.25068,-6.74623 -1.105073,-3.23473 -2.402514,-7.0749 -2.883202,-8.5337 -0.480689,-1.4588 -2.5803065,-7.6861 -4.6658164,-13.83843 -8.0156691,-23.64655 -10.9845245,-32.49854 -12.1446005,-36.21058 -0.4503746,-1.44112 -0.4782789,-1.47492 -0.720684,-0.87311 -0.1386923,0.34434 -0.4267338,1.22654 -0.6400922,1.96045 -0.2133575,0.73391 -1.1993139,3.77341 -2.1910138,6.75444 -0.9916991,2.98103 -2.4219911,7.34014 -3.1784261,9.68691 -0.756437,2.34676 -3.092962,9.40436 -5.19228,15.68355 -2.099318,6.27919 -5.178357,15.51635 -6.842308,20.52702 -1.663951,5.01066 -3.269721,9.83682 -3.56838,10.72478 l -0.543013,1.61449 -10.07372,0.0602 c -7.939423,0.0474 -10.093917,-0.002 -10.169054,-0.23064 z m 286.289503,0.13476 c -0.0891,-0.086 -0.16199,-22.19421 -0.16199,-49.12918 V 177.2349 h 9.19232 9.19231 l -0.0603,49.06878 -0.0603,49.06879 -8.97009,0.0604 c -4.93354,0.0332 -9.04298,-0.01 -9.13208,-0.0961 z m 37.72206,0 c -0.0891,-0.086 -0.162,-16.17448 -0.162,-35.75203 v -35.59552 h 9.19252 9.19253 l -0.0605,35.69163 -0.0605,35.69163 -8.97009,0.0604 c -4.93354,0.0332 -9.04299,-0.01 -9.13207,-0.0961 z m 4.45522,-82.13 c -6.90294,-8.36835 -8.28593,-10.48463 -8.93523,-13.67293 -0.36982,-1.81589 -0.14856,-4.58479 0.51781,-6.4801 2.34557,-6.67128 9.0842,-10.32162 16.33444,-8.84839 3.28362,0.66723 5.89414,2.34948 7.86646,5.06925 2.01283,2.77561 2.62102,4.88601 2.46027,8.53703 -0.0955,2.16901 -0.21864,2.78302 -0.84866,4.23162 -0.86947,1.99913 -2.67717,4.63092 -5.43946,7.9192 -1.09936,1.30868 -3.15611,3.80135 -4.57058,5.53927 -1.41446,1.73792 -2.63809,3.16501 -2.71915,3.17131 -0.0811,0.006 -2.18073,-2.45351 -4.6659,-5.46626 z m 6.19262,-11.14228 c 2.03995,-0.54726 3.53561,-2.57862 3.5467,-4.81699 0.0153,-3.08654 -2.51244,-5.33236 -5.64963,-5.01956 -2.75082,0.27427 -4.6482,2.38224 -4.6482,5.16411 0,1.99266 1.00805,3.46829 2.98434,4.36862 1.3004,0.59242 2.36958,0.67866 3.76679,0.30382 z M 51.592494,151.61893 c -4.148935,-0.34712 -7.140928,-1.17045 -11.221119,-3.08777 -3.321309,-1.56072 -6.209939,-3.5465 -9.044386,-6.21754 -2.557009,-2.40961 -4.345441,-4.91812 -7.332096,-10.28427 -5.277283,-9.48175 -5.812929,-11.08802 -5.806871,-17.41336 0.0034,-3.55426 0.06473,-4.13406 0.65588,-6.20048 1.10816,-3.8737 2.413845,-6.19992 8.62391,-15.364424 1.676177,-2.47362 3.39738,-5.016433 3.824896,-5.650694 0.427515,-0.634262 1.5839,-2.346768 2.569747,-3.80557 C 49.36196,60.659483 51.664375,57.146918 53.137928,54.188149 55.497452,49.450448 56.442467,45.785341 56.652011,40.559294 56.930332,33.61775 55.354113,27.629736 51.679207,21.667827 49.689378,18.439667 47.636522,16.057097 44.907974,13.809053 41.984069,11.400057 40.075853,10.159302 37.028913,8.6859562 23.133777,1.9669693 6.5491496,4.9100936 -4.1988595,16.002277 c -3.210414,3.31322 -5.654061,7.188605 -7.4312285,11.785204 -3.346362,8.655283 -2.551795,19.313802 2.0454809,27.43855 1.7493469,3.091614 9.94419488,15.460199 19.7002961,29.733898 2.030496,2.970724 3.853949,5.86101 4.052119,6.422857 0.477758,1.354534 0.300036,3.772682 -0.370507,5.041236 -1.672767,3.164595 -6.320975,4.218998 -9.4546233,2.1447 -0.8953233,-0.592655 -3.38283382,-3.915375 -6.6343635,-8.861925 -1.2507624,-1.902784 -3.9692838,-5.950526 -6.0411582,-8.994982 -5.525099,-8.118695 -5.538911,-8.139268 -8.7923,-13.094962 -5.823111,-8.870002 -7.901383,-13.739407 -9.225941,-21.616445 -0.602671,-3.584036 -0.654099,-9.311348 -0.115711,-12.886273 1.610685,-10.695041 6.489607,-19.88897 14.58634,-27.4867598 C -6.891089,0.94546527 0.17888102,-3.1640626 6.7657032,-5.2109899 24.093312,-10.595735 43.229047,-6.0324821 55.777443,6.4767239 64.046729,14.720175 68.38881,23.925068 69.634299,35.852222 c 0.595823,5.705789 -0.499253,13.433392 -2.783882,19.644899 -1.868833,5.081043 -2.41666,5.940694 -26.904763,42.219483 -8.647113,12.810576 -8.536293,12.596926 -8.70561,16.784066 -0.124288,3.07356 -0.0041,3.48916 2.269627,7.84278 4.15179,7.94994 5.92107,10.52249 8.752346,12.72596 3.678841,2.86311 9.362639,4.60235 13.866675,4.24322 7.193701,-0.57362 13.310266,-4.31006 16.493248,-10.07528 0.65795,-1.19173 2.629598,-4.65769 4.381432,-7.70215 5.054009,-8.7832 6.551985,-11.39672 9.980696,-17.41336 8.076878,-14.173164 17.255212,-30.119617 18.822442,-32.702164 0,0 2.84671,-3.208262 6.96394,-1.446828 3.28953,1.407329 2.27761,4.572218 1.41954,6.76042 -5.99983,15.300349 -9.06935,22.152618 -12.47554,27.849842 -0.49296,0.82455 -1.34155,2.27758 -1.885739,3.22898 -0.544199,0.95139 -2.605441,4.53208 -4.580536,7.95709 -1.975094,3.42502 -4.641968,8.09549 -5.926384,10.37883 -5.715198,10.1601 -6.535878,11.5105 -8.268294,13.60521 -3.027111,3.66015 -6.54418,6.36318 -11.077469,8.5135 -4.624706,2.19369 -7.341272,2.94047 -12.19171,3.3515 -3.100959,0.26277 -3.059541,0.26277 -6.191824,7.1e-4 z m 105.801276,-0.0132 c -4.09218,-0.38049 -7.98527,-1.54188 -12.07111,-3.60107 -3.59743,-1.81304 -6.9116,-4.30687 -9.42843,-7.09467 -1.89545,-2.09952 -2.61537,-3.12326 -4.13652,-5.88227 -0.66442,-1.2051 -2.20093,-3.90359 -3.41448,-5.99665 -1.21354,-2.09307 -2.87684,-4.99914 -3.69621,-6.45794 -0.81937,-1.4588 -1.73229,-3.06752 -2.0287,-3.57493 -2.66792,-4.56705 -9.15526,-16.12091 -10.68389,-19.027846 -1.20358,-2.288814 -1.36105,-3.681096 -0.6599,-5.834541 1.24472,-3.822931 6.34384,-5.141255 9.86121,-2.549516 0.94333,0.695083 1.91277,2.104126 3.54674,5.155088 0.64541,1.205097 2.57652,4.630105 4.29137,7.611145 1.71485,2.98103 4.38493,7.6515 5.93353,10.37882 1.5486,2.72733 3.21358,5.6334 3.69996,6.45794 0.48638,0.82454 1.94964,3.41925 3.2517,5.76602 2.24941,4.05423 2.48634,4.38335 4.75485,6.60496 2.2174,2.17158 2.58305,2.42903 5.13306,3.61426 3.73932,1.73801 5.34296,2.10279 9.19177,2.09087 3.81999,-0.0119 5.86729,-0.48768 9.35657,-2.17471 3.8858,-1.87875 6.22534,-4.2272 8.71829,-8.75154 1.26914,-2.30329 4.54298,-8.45541 9.20514,-17.29804 1.83923,-3.48845 4.60449,-8.72976 6.14502,-11.647358 1.54053,-2.917604 4.30724,-8.158911 6.14825,-11.64735 1.841,-3.488438 4.31363,-8.15891 5.49472,-10.378826 1.1811,-2.219915 5.42608,-10.315399 9.43329,-17.989964 4.00722,-7.674566 8.92051,-17.083129 10.91845,-20.907919 4.15058,-7.945771 4.65258,-9.333626 4.65258,-12.862612 0,-1.890777 -0.11523,-2.588932 -0.71065,-4.305827 -1.32328,-3.81561 -2.78017,-5.885119 -5.49678,-7.80814 -3.10373,-2.197062 -5.1865,-2.83157 -9.31114,-2.836602 -3.83875,-0.0047 -6.28341,0.785649 -9.43495,3.050219 -2.46459,1.77095 -2.27035,1.428336 -15.88856,28.026876 -4.09167,7.991696 -9.05509,17.644005 -11.0298,21.449574 -1.97473,3.80557 -4.40529,8.527935 -5.40126,10.494146 -5.44796,10.755119 -12.01504,23.297044 -12.62004,24.101941 -1.05256,1.40034 -2.86771,2.250832 -5.06624,2.373782 -1.32854,0.0743 -2.05197,1.6e-4 -2.75473,-0.282284 -1.54995,-0.622934 -2.68427,-1.498265 -3.41713,-2.636921 -0.8114,-1.260683 -8.06089,-13.755122 -9.72016,-16.752621 -0.63198,-1.14167 -2.18561,-3.840165 -3.45251,-5.996654 -1.26691,-2.15649 -3.09257,-5.322032 -4.05702,-7.034538 -0.96444,-1.712507 -2.84753,-4.981837 -4.18462,-7.265179 -1.3371,-2.283342 -2.8913,-4.981836 -3.45377,-5.996654 -3.25766,-5.877449 -5.11672,-8.049508 -8.05309,-9.408945 -4.07058,-1.884531 -9.1142,-1.577307 -12.79745,0.779537 -1.82675,1.168905 -3.31201,3.103034 -6.006823,7.822165 -1.412532,2.47362 -3.346858,5.794845 -4.298488,7.380499 -0.951638,1.585654 -2.886108,4.906878 -4.298821,7.380498 -2.971526,5.203046 -6.51488,11.301871 -16.950966,29.176033 -1.481292,2.537047 -4.756784,8.193504 -7.278857,12.569914 -5.697909,9.88721 -5.982925,10.26838 -8.213016,10.98395 -1.521491,0.4882 -3.963399,0.33573 -5.316952,-0.33197 -2.989654,-1.47479 -4.255751,-5.39652 -2.703414,-8.3738 0.538303,-1.03243 2.554714,-4.51193 10.609538,-18.307702 2.518184,-4.312979 5.203033,-8.931556 5.966332,-10.263506 0.763299,-1.331949 2.355201,-4.082338 3.537544,-6.111975 4.901998,-8.414828 7.686629,-13.219444 8.354568,-14.415036 0.820851,-1.46928 4.546851,-7.907693 6.807224,-11.76267 0.855366,-1.458801 2.302404,-3.949719 3.21562,-5.535374 2.129325,-3.697208 3.481327,-5.526676 5.42197,-7.336749 1.848666,-1.724279 5.489917,-4.136816 7.714251,-5.11113 3.66892,-1.607082 8.61307,-2.49155 12.34907,-2.209145 6.95691,0.525876 11.93253,2.83091 16.89952,7.82898 2.54437,2.560279 3.1225,3.445635 9.12751,13.977902 1.48267,2.600472 5.3342,9.294816 8.55897,14.876317 3.22476,5.581503 6.22371,10.796862 6.66432,11.589689 0.44062,0.792828 0.90419,1.441504 1.03016,1.441504 0.20673,0 17.0798,-32.503838 30.36835,-58.500828 2.86151,-5.5981 5.84724,-11.123441 6.63496,-12.278537 0.78771,-1.155096 2.3679,-3.0113283 3.51153,-4.1249618 3.6507,-3.5549654 7.19839,-5.45129037 13.06168,-6.9817855 2.66138,-0.6946991 8.44816,-0.8810084 11.45987,-0.3689593 5.99114,1.01860819 11.12382,3.5743828 15.15285,7.5452221 7.3566,7.2503485 10.08618,17.5670295 7.25412,27.4175925 -0.51195,1.780706 -2.10409,5.02628 -8.3213,16.963021 -8.18458,15.713986 -14.53612,27.824733 -18.14411,34.596087 -3.71242,6.967354 -8.56508,16.205084 -15.81107,30.098604 -8.40138,16.10886 -10.9827,20.9089 -12.21713,22.71809 -1.25251,1.83568 -3.29369,4.02197 -5.59998,5.9981 -2.61496,2.2406 -3.71667,2.96967 -6.60099,4.36822 -4.10621,1.99104 -6.52362,2.66573 -11.61135,3.24066 -3.3294,0.37624 -3.91594,0.38351 -7.09405,0.088 z M 17.946844,69.173008 C 14.626929,65.312849 10.803665,60.524235 7.1797663,55.687312 3.2227536,50.405772 1.6418605,47.610452 0.57047189,44.000821 -0.17547341,41.487644 -0.16692092,36.821493 0.58858209,34.122418 2.2924723,28.035151 6.3319392,23.287605 12.234185,20.435458 c 2.89029,-1.396677 5.137241,-1.919364 8.817797,-2.0512 2.682156,-0.09607 3.40652,-0.04093 5.133065,0.390815 8.279011,2.070243 14.003481,7.537903 16.13923,15.415196 0.775282,2.859474 0.869414,7.108943 0.213077,9.619053 -1.048475,4.009809 -4.595536,9.606383 -11.34475,17.89982 -0.991979,1.218944 -2.448215,3.028833 -3.236081,4.021977 -2.0329,2.562571 -6.113266,7.356676 -6.330731,7.438104 -0.100685,0.0377 -1.75621,-1.760596 -3.678945,-3.996215 z m 7.264082,-22.464512 c 2.744035,-1.361514 4.307266,-3.334261 4.777856,-6.029498 0.648978,-3.716936 -1.269543,-7.383795 -4.72241,-9.025918 -1.42572,-0.678047 -1.812584,-0.758946 -3.630875,-0.759269 -1.705324,-3.02e-4 -2.254705,0.09908 -3.390056,0.613237 -1.897729,0.859414 -3.395509,2.276274 -4.315338,4.082193 -0.703588,1.381371 -0.775394,1.717227 -0.770357,3.603199 0.0047,1.743598 0.105053,2.286614 0.621008,3.358884 1.030889,2.142412 2.719521,3.677501 4.957646,4.506862 1.394848,0.516875 5.133069,0.314911 6.472526,-0.34969 z"
       id="path1"
       sodipodi:nodetypes="csssssssssssscccssssssssccssssssssccssssssssscccscccccccssssssssscssscssssssssssscssssssssssssscssssscssssssssssscccsssssssssssscssssscccccssssscccccsssssssssssscsssssssssssssssssssssssssssssssssssssssscsssssssssssssssssssssssssssssssssssssssssssssssssssssssssssssssssssssssssssssssssssssssssssssssssssssssssssssssssssssssssss" /><path
       style="fill:#143461;fill-opacity:1;fill-rule:evenodd;stroke:#ffffff;stroke-width:0.184171"
       d="m -48.654097,274.94914 c -0.818001,-1.39353 -31.641203,-93.13202 -31.37713,-93.38713 0.18432,-0.17806 4.408699,-0.41237 9.387513,-0.52068 l 9.052385,-0.19694 6.857902,20.77052 c 10.017549,30.34012 16.12052,48.23779 16.530466,48.47745 0.198191,0.11585 5.447751,-15.01501 11.665686,-33.62417 6.217937,-18.60915 11.397974,-34.10422 11.511197,-34.43349 0.154231,-0.44854 2.380284,-0.59868 8.8764552,-0.59868 h 8.6706045 l 6.4969375,19.27736 c 12.2869348,36.45715 16.9587648,49.77307 17.3221858,49.37279 0.200309,-0.22063 4.743143,-13.54805 10.09514,-29.61651 5.35202,-16.06845 10.46706,-31.36203 11.366755,-33.98575 l 1.635801,-4.77038 1.971049,-0.42214 c 1.790724,-0.38352 15.98914,-0.1227 16.428555,0.30179 0.102112,0.0987 -6.525153,19.87792 -14.727314,43.9539 -8.202137,24.07599 -15.363503,45.12153 -15.914126,46.76789 l -1.001139,2.99339 H 26.443697 16.692568 L 6.3141308,244.53731 C 0.60599257,227.61323 -4.4919865,212.41922 -5.0146997,210.77289 c -0.5227155,-1.64636 -1.1048553,-2.99339 -1.2936351,-2.99339 -0.1887822,0 -1.2869502,2.95895 -2.4403763,6.57544 -1.1534236,3.61652 -6.1635219,18.8108 -11.1335519,33.76509 l -9.036411,27.18964 -9.762285,2.1e-4 c -5.369258,1.2e-4 -9.857169,-0.16142 -9.973138,-0.35899 z"
       id="path2" /><path
       style="fill:#143461;fill-opacity:1;fill-rule:evenodd;stroke:#ffffff;stroke-width:0.184171"
       d="m 92.900802,275.32951 c -11.87161,-3.10366 -20.817946,-11.9535 -24.498951,-24.23477 -0.986408,-3.29101 -1.13627,-4.83851 -1.110557,-11.46745 0.03237,-8.34863 0.58825,-11.2905 3.174622,-16.80092 4.4656,-9.51424 12.251935,-15.89999 22.823805,-18.7183 4.83881,-1.28995 14.519559,-1.14488 18.839429,0.28235 4.13364,1.36567 7.09224,3.03776 9.95965,5.6288 1.25932,1.13796 2.43383,2.06899 2.61008,2.06899 0.17622,0 0.32042,-1.72418 0.32042,-3.83152 v -3.83151 h 8.18027 8.18026 v 35.44159 35.44159 h -8.18026 -8.18027 v -4.35853 -4.35853 l -2.77439,2.44954 c -5.86454,5.17786 -10.24063,6.77576 -19.28757,7.04268 -5.30024,0.15637 -7.086594,0.0224 -10.056538,-0.75401 z m 15.318428,-13.91713 c 10.54286,-1.91727 16.96013,-11.18812 16.16827,-23.35787 -0.64495,-9.91213 -5.63171,-16.83764 -13.91223,-19.32095 -10.914423,-3.2732 -21.921219,2.74991 -24.922153,13.63787 -1.026469,3.72432 -0.894227,12.04922 0.247725,15.59375 2.237753,6.94579 7.202812,11.58741 14.181847,13.25801 3.151251,0.75431 4.907161,0.79464 8.236541,0.18919 z"
       id="path3" /><path
       style="fill:#143461;fill-opacity:1;fill-rule:evenodd;stroke:#ffffff;stroke-width:0.184171"
       d="m 162.69815,297.1652 c -4.11121,-1.19518 -7.9324,-2.95209 -7.9324,-3.64717 0,-0.24724 1.13505,-3.21409 2.52231,-6.59297 l 2.5223,-6.14346 2.99723,1.43514 c 3.83858,1.83795 9.01782,2.05613 11.78915,0.49659 1.9843,-1.11665 4.95773,-5.09418 4.95773,-6.63191 0,-0.56894 -5.14787,-13.74539 -11.4397,-29.28097 -13.77165,-34.00454 -16.81943,-41.62673 -16.81943,-42.06373 0,-0.18299 4.1685,-0.27407 9.26335,-0.20238 l 9.26336,0.13029 8.75773,22.51019 c 9.77087,25.1143 10.18035,26.10879 10.74095,26.08642 0.21841,-0.009 4.636,-10.99636 9.81683,-24.41702 l 9.41973,-24.40117 9.10092,-0.009 c 7.08655,-0.007 9.04554,0.12357 8.8507,0.58974 -0.13762,0.32927 -3.26494,8.03423 -6.9496,17.12211 -16.61017,40.96758 -24.61319,60.33742 -26.11826,63.21439 -3.08296,5.8931 -9.67356,11.03693 -15.92508,12.42922 -3.85302,0.8581 -10.71268,0.56906 -14.81782,-0.62437 z"
       id="path4" /><path
       style="fill:#143461;fill-opacity:1;fill-rule:evenodd;stroke:#ffffff;stroke-width:0.184171"
       d="M 237.56009,226.45642 V 177.6045 h 8.92394 8.92394 v 48.85192 48.85194 h -8.92394 -8.92394 z"
       id="path5" /><path
       style="fill:#143461;fill-opacity:1;fill-rule:evenodd;stroke:#ffffff;stroke-width:0.184171"
       d="m 275.23893,239.86677 v -35.44159 h 8.92395 8.92394 v 35.44159 35.44159 h -8.92394 -8.92395 z"
       id="path6" /></g><g
     inkscape:groupmode="layer"
     id="layer2"
     inkscape:label="Logo"
     transform="translate(-168.4393,-24.801619)" /></svg>
