<?xml version="1.0" encoding="UTF-8" standalone="no"?>
<!-- Created with Inkscape (http://www.inkscape.org/) -->

<svg
   width="373.79099mm"
   height="219.8779mm"
   viewBox="0 0 373.79098 219.8779"
   version="1.1"
   id="svg1"
   xml:space="preserve"
   inkscape:version="1.4.2 (ebf0e940, 2025-05-08)"
   sodipodi:docname="logo-icon.svg"
   xmlns:inkscape="http://www.inkscape.org/namespaces/inkscape"
   xmlns:sodipodi="http://sodipodi.sourceforge.net/DTD/sodipodi-0.dtd"
   xmlns:xlink="http://www.w3.org/1999/xlink"
   xmlns="http://www.w3.org/2000/svg"
   xmlns:svg="http://www.w3.org/2000/svg"><sodipodi:namedview
     id="namedview1"
     pagecolor="#ffffff"
     bordercolor="#000000"
     borderopacity="0.25"
     inkscape:showpageshadow="2"
     inkscape:pageopacity="0.0"
     inkscape:pagecheckerboard="0"
     inkscape:deskcolor="#d1d1d1"
     inkscape:document-units="mm"
     inkscape:clip-to-page="false"
     inkscape:zoom="0.39278935"
     inkscape:cx="549.91307"
     inkscape:cy="737.03627"
     inkscape:window-width="1800"
     inkscape:window-height="1064"
     inkscape:window-x="0"
     inkscape:window-y="40"
     inkscape:window-maximized="0"
     inkscape:current-layer="layer1" /><defs
     id="defs1"><linearGradient
       id="linearGradient7"
       inkscape:collect="always"><stop
         style="stop-color:#1d3462;stop-opacity:1;"
         offset="0.1849315"
         id="stop7" /><stop
         style="stop-color:#4ea7a7;stop-opacity:1;"
         offset="0.51780826"
         id="stop9" /><stop
         style="stop-color:#e69346;stop-opacity:1;"
         offset="0.80136985"
         id="stop8" /></linearGradient><linearGradient
       inkscape:collect="always"
       xlink:href="#linearGradient7"
       id="linearGradient8"
       x1="-101.17111"
       y1="145.64384"
       x2="318.30664"
       y2="145.64384"
       gradientUnits="userSpaceOnUse"
       gradientTransform="matrix(1.1291086,0,0,1.0339453,-18.721758,78.781238)" /></defs><g
     inkscape:label="Layer 1"
     inkscape:groupmode="layer"
     id="layer1"
     transform="translate(83.08462,-32.304041)"><path
       style="fill:url(#linearGradient8);stroke-width:1.08048"
       d="m 32.570139,236.4561 c -5.191543,-0.41172 -8.93541,-1.38828 -14.040935,-3.66243 -4.155938,-1.85118 -7.770468,-4.20653 -11.3171981,-7.37468 -3.1995736,-2.85806 -5.4374303,-5.83342 -9.1746179,-12.19825 -6.6034401,-11.24638 -7.273691,-13.15159 -7.2661107,-20.65413 0.00426,-4.21574 0.080995,-4.90344 0.8206989,-7.35444 1.3866356,-4.59463 3.0204333,-7.35378 10.7910593,-18.22387 2.0973926,-2.93397 4.2511259,-5.95002 4.7860748,-6.70234 0.5349475,-0.7523 1.9819267,-2.78351 3.2155127,-4.51382 19.394459,-27.20378 22.27546,-31.37007 24.11931,-34.87949 2.952462,-5.61942 4.134955,-9.96664 4.397156,-16.16529 0.348262,-8.233432 -1.624054,-15.335861 -6.222446,-22.407331 -2.489864,-3.828947 -5.058594,-6.654933 -8.472813,-9.321356 -3.658669,-2.85733 -6.046411,-4.328999 -9.859033,-6.076548 -17.3869194,-7.969446 -38.139187,-4.478582 -51.588121,8.677949 -4.017176,3.929838 -7.074901,8.526464 -9.298663,13.978528 -4.187287,10.266106 -3.193049,22.908268 2.559501,32.545088 2.18895,3.667 12.443126,18.33747 24.65089,35.26762 2.540751,3.52361 4.822429,6.95179 5.070398,7.61821 0.597816,1.60662 0.375434,4.47481 -0.463614,5.97945 -2.093125,3.75355 -7.909406,5.00419 -11.830526,2.54384 -1.120314,-0.70295 -4.232924,-4.64405 -8.301548,-10.5112 -1.565074,-2.2569 -4.966747,-7.05797 -7.559275,-10.66902 -6.91353,-9.62965 -6.930813,-9.65405 -11.001764,-15.53204 -7.286432,-10.52079 -9.886965,-16.29642 -11.544377,-25.63945 -0.75412,-4.25106 -0.818472,-11.04427 -0.144789,-15.284507 2.015443,-12.685479 8.120415,-23.590474 18.25182,-32.602276 6.243172,-5.553252 15.089793,-10.427597 23.331853,-12.855474 21.6819574,-6.38689 45.626414,-0.974379 61.328164,13.862894 10.347319,9.777625 15.780546,20.695625 17.33902,34.842515 0.745551,6.767688 -0.624712,15.933468 -3.483458,23.300978 -2.338463,6.02667 -3.023955,7.04631 -33.665806,50.07688 -10.8200929,15.19473 -10.6814244,14.94132 -10.89329,19.90771 -0.155521,3.64558 -0.00513,4.13853 2.8399738,9.30239 5.1951162,9.42949 7.4090072,12.48082 10.9517702,15.09437 4.603316,3.39596 11.715427,5.45888 17.351307,5.03292 9.001444,-0.68038 16.655075,-5.1122 20.637925,-11.95038 0.82329,-1.41352 3.290404,-5.52452 5.482466,-9.13558 6.324058,-10.41782 8.198468,-13.51774 12.488798,-20.65413 10.106561,-16.8109 21.591368,-35.72512 23.552438,-38.7883 0,0 3.56207,-3.80534 8.71394,-1.7161 4.11618,1.66925 2.84996,5.42315 1.77627,8.01859 -7.50757,18.14788 -11.348441,26.27541 -15.610588,33.03293 -0.616839,0.978 -1.678675,2.70146 -2.359617,3.82992 -0.680953,1.12845 -3.260176,5.37554 -5.731604,9.43796 -2.471426,4.06245 -5.808472,9.60213 -7.415657,12.31043 -7.1514,12.05097 -8.178313,13.6527 -10.346078,16.13724 -3.78781,4.34134 -8.188702,7.54742 -13.861186,10.09794 -5.786873,2.60195 -9.1861,3.48771 -15.25543,3.97524 -3.880215,0.31167 -3.82839,0.31167 -7.747801,8.4e-4 z m 132.388651,-0.0156 c -5.12053,-0.4513 -9.99193,-1.82884 -15.10453,-4.27125 -4.50145,-2.15047 -8.64846,-5.10843 -11.79775,-8.41505 -2.37176,-2.49026 -3.2726,-3.70452 -5.17601,-6.97701 -0.83138,-1.42939 -2.75401,-4.63009 -4.27252,-7.11268 -1.5185,-2.4826 -3.59978,-5.92952 -4.62505,-7.65982 -1.02528,-1.73029 -2.16761,-3.63841 -2.5385,-4.24025 -3.33836,-5.41701 -11.45594,-19.12114 -13.3687,-22.56908 -1.50604,-2.71479 -1.70308,-4.36618 -0.82574,-6.9204 1.55751,-4.53442 7.93802,-6.09808 12.33929,-3.024 1.18039,0.82444 2.39344,2.49572 4.43802,6.11449 0.8076,1.42937 3.22398,5.49181 5.36978,9.02764 2.14578,3.53583 5.48683,9.07551 7.42459,12.31041 1.93775,3.23491 4.02114,6.68182 4.62974,7.65981 0.60861,0.97799 2.43957,4.05561 4.06884,6.83913 2.81467,4.80875 3.11115,5.19912 5.94972,7.83419 2.77463,2.57573 3.23216,2.8811 6.42298,4.28691 4.67899,2.06147 6.68561,2.49413 11.50161,2.47999 4.77994,-0.0141 7.34172,-0.57844 11.70783,-2.57944 4.8623,-2.22839 7.78975,-5.01391 10.90917,-10.38027 1.58806,-2.73195 5.6846,-10.02903 11.51834,-20.51735 2.30142,-4.13768 5.76158,-10.35444 7.68924,-13.81503 1.92766,-3.46059 5.38963,-9.67735 7.69328,-13.81501 2.30363,-4.13767 5.39762,-9.67736 6.87551,-12.31041 1.47791,-2.63306 6.78963,-12.23518 11.80384,-21.33805 5.01421,-9.10286 11.16219,-20.26243 13.6622,-24.79905 5.19361,-9.424552 5.82176,-11.070692 5.82176,-15.256451 0,-2.242667 -0.14419,-3.070754 -0.88924,-5.107177 -1.65581,-4.525727 -3.47881,-6.980388 -6.87809,-9.261299 -3.88369,-2.605954 -6.48985,-3.358549 -11.65099,-3.364518 -4.80341,-0.0056 -7.8624,0.931865 -11.80591,3.61789 -3.08393,2.100539 -2.84088,1.694161 -19.88128,33.242905 -5.11989,9.47903 -11.3306,20.9277 -13.80154,25.44152 -2.47097,4.51382 -5.51232,10.11506 -6.75857,12.4472 -6.81701,12.75673 -15.03437,27.6328 -15.7914,28.58751 -1.31706,1.66095 -3.58835,2.66972 -6.33936,2.81555 -1.6624,0.0881 -2.56763,1.9e-4 -3.44698,-0.33481 -1.93945,-0.73888 -3.35882,-1.77711 -4.27584,-3.12767 -1.0153,-1.49531 -10.08656,-16.31506 -12.16279,-19.87042 -0.7908,-1.35415 -2.73485,-4.55486 -4.32011,-7.11269 -1.58528,-2.55783 -3.86973,-6.3125 -5.07653,-8.34373 -1.2068,-2.03121 -3.56311,-5.90899 -5.2362,-8.61728 -1.67311,-2.7083 -3.61787,-5.909 -4.32169,-7.11269 -4.07629,-6.97129 -6.40252,-9.54758 -10.07679,-11.16001 -5.0935,-2.23526 -11.40456,-1.87087 -16.013389,0.92461 -2.285804,1.38644 -4.144303,3.68053 -7.51631,9.27793 -1.767494,2.93399 -4.187908,6.87331 -5.378678,8.75408 -1.19078,1.88075 -3.611373,5.82009 -5.379095,8.75407 -3.718257,6.17137 -8.152039,13.40524 -21.210666,34.60593 -1.853534,3.00921 -5.952142,9.71838 -9.107999,14.90927 -7.129769,11.7273 -7.486407,12.17941 -10.27691,13.02815 -1.903834,0.57906 -4.959383,0.39821 -6.653077,-0.39374 -3.740941,-1.74927 -5.325202,-6.40087 -3.38277,-9.93224 0.673576,-1.22458 3.196702,-5.35164 13.275666,-21.71492 3.150992,-5.11566 6.510531,-10.59379 7.465643,-12.17363 0.955113,-1.57983 2.947053,-4.84209 4.426513,-7.24946 6.133848,-9.9809 9.618243,-15.67969 10.454033,-17.09779 1.027127,-1.74273 5.689454,-9.37938 8.517848,-13.95181 1.070316,-1.73029 2.880987,-4.68479 4.023691,-6.56554 2.664413,-4.3853 4.356168,-6.55524 6.784485,-8.70218 2.313228,-2.04519 6.869508,-4.906721 9.652807,-6.062357 4.590903,-1.906171 10.777488,-2.955248 15.452338,-2.620279 8.70515,0.623739 14.93112,3.357765 21.14629,9.286016 3.18375,3.03676 3.90717,4.08689 11.4212,16.5793 1.85527,3.08445 6.67466,11.02465 10.70981,17.64491 4.03513,6.62028 7.78769,12.80626 8.33903,13.74663 0.55135,0.94039 1.13141,1.70979 1.28903,1.70979 0.25869,0 21.37188,-38.55307 37.99978,-69.388315 3.5806,-6.639953 7.31663,-13.193606 8.30229,-14.563674 0.98566,-1.370069 2.96294,-3.571763 4.39397,-4.892652 4.5681,-4.216574 9.00731,-6.465821 16.34401,-8.281154 3.33018,-0.823988 10.57115,-1.044971 14.33969,-0.437625 7.49668,1.208179 13.91918,4.239605 18.96069,8.94945 9.20528,8.599698 12.62079,20.836399 9.07705,32.520232 -0.6406,2.112115 -2.63284,5.961708 -10.4124,20.119978 -10.24134,18.63849 -18.18898,33.00314 -22.70365,41.03471 -4.64533,8.26403 -10.71744,19.22098 -19.78431,35.7002 -10.51262,19.10685 -13.74261,24.80022 -15.28724,26.94611 -1.56726,2.17732 -4.12138,4.77049 -7.00724,7.11439 -3.27208,2.6576 -4.65065,3.52235 -8.25979,5.18119 -5.13807,2.36159 -8.16297,3.16184 -14.52922,3.84377 -4.16606,0.44627 -4.9,0.45488 -8.87675,0.10438 z M -9.530508,138.66631 c -4.154194,-4.57856 -8.938226,-10.25837 -13.472794,-15.99549 -4.951392,-6.26449 -6.929556,-9.58004 -8.27018,-13.86145 -0.933398,-2.98089 -0.922696,-8.51545 0.02266,-11.716848 2.13207,-7.220157 7.186636,-12.85126 14.57209,-16.234216 3.616606,-1.656609 6.428205,-2.276573 11.0336679,-2.432944 3.3561701,-0.11395 4.2625625,-0.04855 6.42298079,0.463549 10.35948831,2.455531 17.52249131,8.940768 20.19494431,18.284088 0.970107,3.391651 1.087894,8.431971 0.266622,11.409231 -1.311952,4.75607 -5.750373,11.39422 -14.1956333,21.23113 -1.2412588,1.4458 -3.0634401,3.59253 -4.0492933,4.7705 -2.54375823,3.03949 -7.6495012,8.72582 -7.9216144,8.82241 -0.1259863,0.0447 -2.1975375,-2.08827 -4.603447,-4.73996 z m 9.08951288,-26.64534 C 2.9926028,110.40606 4.9486666,108.06618 5.5375137,104.86934 6.3495768,100.46064 3.9489404,96.111361 -0.37161666,94.163617 -2.1556132,93.359388 -2.6396945,93.263432 -4.9149131,93.26304 c -2.1338641,-3.55e-4 -2.8213019,0.117544 -4.2419615,0.72737 -2.3746194,1.019353 -4.2487854,2.699902 -5.3997624,4.841919 -0.880396,1.638451 -0.970247,2.036821 -0.963944,4.273781 0.0059,2.0681 0.131453,2.71218 0.777064,3.98401 1.289946,2.54113 3.402924,4.36191 6.2034791,5.34562 1.7453677,0.61307 6.4229856,0.37352 8.09904278,-0.41477 z"
       id="path1"
       sodipodi:nodetypes="ssssssssssssssssssssssssssssssssscsssssssssssssssssssssssssssssssssssssssssssssssssssssssssssssssssssssssssssssssssssssssssssssssssssssssssssssssssssssssssss" /></g><g
     inkscape:groupmode="layer"
     id="layer2"
     inkscape:label="Logo"
     transform="translate(-186.52579,-87.072786)" /></svg>
